Coordinates
version=1
nRows=5
nColumns=63
inDegrees=yes

Units are S.I. units (second, meters, Newtons, ...)
If the header above contains a line with 'inDegrees', this indicates whether rotational values are in degrees (yes) or radians (no).

endheader
time	pelvis_tilt	pelvis_list	pelvis_rotation	pelvis_tx	pelvis_ty	pelvis_tz	hip_flexion_r	hip_adduction_r	hip_rotation_r	knee_angle_r	knee_angle_r_beta	ankle_angle_r	subtalar_angle_r	mtp_angle_r	hip_flexion_l	hip_adduction_l	hip_rotation_l	knee_angle_l	knee_angle_l_beta	ankle_angle_l	subtalar_angle_l	mtp_angle_l	L5_S1_Flex_Ext	L5_S1_Lat_Bending	L5_S1_axial_rotation	L4_L5_Flex_Ext	L4_L5_Lat_Bending	L4_L5_axial_rotation	L3_L4_Flex_Ext	L3_L4_Lat_Bending	L3_L4_axial_rotation	L2_L3_Flex_Ext	L2_L3_Lat_Bending	L2_L3_axial_rotation	L1_L2_Flex_Ext	L1_L2_Lat_Bending	L1_L2_axial_rotation	L1_T12_Flex_Ext	L1_T12_Lat_Bending	L1_T12_axial_rotation	Abs_r3	Abs_r2	Abs_r1	Abs_t1	Abs_t2	neck_flexion	neck_bending	neck_rotation	arm_flex_r	arm_add_r	arm_rot_r	elbow_flex_r	pro_sup_r	wrist_flex_r	wrist_dev_r	arm_flex_l	arm_add_l	arm_rot_l	elbow_flex_l	pro_sup_l	wrist_flex_l	wrist_dev_l
      9.36666667	      7.22693465	     -5.71467938	   -182.68829050	      2.65591424	      0.88267750	      0.87991318	     18.28426034	     -9.11220354	     -9.11998746	     28.20976004	      0.49235319	   -332.30832312	      2.07850404	      0.00000000	     14.21897809	      3.13987960	     -9.58654729	     19.57490844	      0.34164660	     17.29054986	    -17.96814098	      0.00000000	      0.00097875	     -0.57888987	      0.24863305	      0.00181764	     -0.76992353	      0.26417262	      0.00160799	     -1.40751284	      0.26417262	      0.00111862	     -1.40751284	      0.21755392	      0.00090887	     -1.18047223	      0.20201435	      0.00055926	     -0.89670042	      0.18647479	      0.00699114	     -6.54851804	      1.38282244	      0.00000000	      0.00000000	      0.00000000	      0.00000000	      0.00000000	     -5.36375703	     -9.38108045	     24.56698105	     25.34670480	     63.22729879	      0.00000000	      5.00000014	    -12.06515429	    -10.78337548	     28.71454554	     24.71742692	     53.63355759	      0.00000000	      5.00000014
      9.40000000	      7.43038111	     -5.47324795	   -183.30062497	      2.65550424	      0.88224754	      0.88033140	     18.64325990	     -8.86724769	     -8.95569845	     28.39518177	      0.49558941	   -332.18142680	      2.89056642	      0.00000000	     14.54837404	      2.78008814	    -10.15095719	     19.85564922	      0.34654645	     17.70771474	    -17.68169070	      0.00000000	     -0.00059476	     -0.55504622	      0.15822822	     -0.00110452	     -0.73821147	      0.16811749	     -0.00097713	     -1.34953937	      0.16811749	     -0.00067975	     -1.34953937	      0.13844970	     -0.00055229	     -1.13185024	      0.12856043	     -0.00033984	     -0.85976659	      0.11867117	     -0.00424829	     -6.27879381	      0.88001791	      0.00000000	      0.00000000	      0.00000000	      0.00000000	      0.00000000	     -4.29600735	    -10.26980533	     29.08752780	     25.25392153	     64.79093210	      0.00000000	      5.00000014	    -13.91096828	     -9.28375994	     19.99811876	     25.91605830	     51.44361776	      0.00000000	      5.00000014
      9.43333333	      7.62885048	     -5.37819664	   -183.51198911	      2.65501854	      0.88208463	      0.88065644	     18.81873458	     -8.74492447	     -8.67234635	     28.33852147	      0.49460050	   -332.25341737	      3.12840627	      0.00000000	     14.73763811	      2.69187554	    -10.17858280	     19.82817525	      0.34606694	     17.69644007	    -17.74733841	      0.00000000	     -0.00014279	     -0.54828251	      0.11023895	     -0.00026518	     -0.72921574	      0.11712888	     -0.00023459	     -1.33309410	      0.11712888	     -0.00016320	     -1.33309410	      0.09645908	     -0.00013260	     -1.11805770	      0.08956914	     -0.00008159	     -0.84928961	      0.08267921	     -0.00101994	     -6.20228144	      0.61311594	      0.00000000	      0.00000000	      0.00000000	      0.00000000	      0.00000000	     -4.15689011	    -10.35293302	     29.10389202	     25.37325054	     64.80034843	      0.00000000	      5.00000014	    -14.19054581	     -9.19587047	     19.98770911	     26.00378477	     51.43621521	      0.00000000	      5.00000014
      9.46666667	      7.71181872	     -5.24598106	   -183.85953370	      2.65450122	      0.88199417	      0.88031777	     18.87757874	     -8.43415239	     -7.99349772	     28.24228098	      0.49292079	   -332.45905106	      2.90845241	      0.00000000	     14.79253020	      2.48165305	    -10.40674596	     19.86993411	      0.34679577	     17.66954653	    -17.79566654	      0.00000000	     -0.00050539	     -0.53944210	      0.15933727	     -0.00093856	     -0.71745800	      0.16929585	     -0.00083030	     -1.31159953	      0.16929585	     -0.00057761	     -1.31159953	      0.13942011	     -0.00046930	     -1.10003034	      0.12946153	     -0.00028878	     -0.83559582	      0.11950295	     -0.00360994	     -6.10227696	      0.88618607	      0.00000000	      0.00000000	      0.00000000	      0.00000000	      0.00000000	     -4.25023998	    -10.52747402	     29.46223323	     25.72094252	     64.44626150	      0.00000000	      5.00000014	    -14.61095152	     -8.77081334	     17.57417040	     26.36387869	     51.61098067	      0.00000000	      5.00000014
      9.50000000	      7.63918195	     -5.21608574	   -183.81002816	      2.65395827	      0.88217844	      0.88004986	     18.66485002	     -8.37069981	     -7.81058488	     28.14577251	      0.49123640	   -332.68575751	      2.89803299	      0.00000000	     14.65089656	      2.45801248	    -10.39732085	     19.82004196	      0.34592499	     17.52892646	    -17.82218055	      0.00000000	     -0.00145727	     -0.54180814	      0.17604035	     -0.00270630	     -0.72060482	      0.18704287	     -0.00239415	     -1.31735230	      0.18704287	     -0.00166551	     -1.31735230	      0.15403531	     -0.00135322	     -1.10485515	      0.14303278	     -0.00083268	     -0.83926080	      0.13203026	     -0.01040914	     -6.12904199	      0.97908361	      0.00000000	      0.00000000	      0.00000000	      0.00000000	      0.00000000	     -4.40256711	    -10.48260908	     29.39701249	     25.77588887	     64.02711616	      0.00000000	      5.00000014	    -14.68285334	     -8.32975229	     15.65243651	     26.09485729	     51.07583068	      0.00000000	      5.00000014
